<svg xmlns="http://www.w3.org/2000/svg" viewBox="0 -0.5 20 20" shape-rendering="crispEdges">
  <path stroke="#000000" d="M3 0h5M12 0h5M2 1h7M11 1h7M1 2h3M7 2h6M16 2h3M0 3h3M8 3h4M17 3h3M0 4h2M9 4h2M18 4h2M0 5h2M9 5h2M18 5h2M0 6h2M18 6h2M0 7h2M18 7h2M0 8h2M18 8h2M0 9h2M18 9h2M0 10h2M18 10h2M0 11h2M18 11h2M1 12h3M16 12h3M2 13h2M16 13h2M3 14h3M14 14h3M4 15h2M14 15h2M5 16h3M12 16h3M6 17h2M12 17h2M7 18h6M8 19h4" />
  <path stroke="currentColor" d="M4 2h3M13 2h3M3 3h5M12 3h5M2 4h7M11 4h7M2 5h7M11 5h7M2 6h16M2 7h16M2 8h16M2 9h16M2 10h16M2 11h16M4 12h12M4 13h12M6 14h8M6 15h8M8 16h4M8 17h4" />
</svg>