<svg xmlns="http://www.w3.org/2000/svg" viewBox="0 -0.5 20 20" shape-rendering="crispEdges">
  <path stroke="#000000" d="M3 0h5M12 0h5M2 1h7M11 1h7M1 2h3M7 2h6M16 2h3M0 3h3M8 3h4M17 3h3M0 4h2M9 4h2M18 4h2M0 5h2M18 5h2M0 6h2M18 6h2M0 7h2M18 7h2M0 8h2M18 8h2M0 9h2M18 9h2M0 10h2M18 10h2M0 11h2M18 11h2M1 12h3M16 12h3M2 13h2M16 13h2M3 14h3M14 14h3M4 15h2M14 15h2M5 16h3M12 16h3M6 17h2M12 17h2M7 18h6M8 19h4" />
  <path stroke="currentColor" d="M4 2h3M13 2h3M3 3h5M12 3h5M2 4h7M11 4h7M2 5h7M11 5h7M2 6h6M12 6h6M2 7h5M13 7h5M2 8h4M14 8h4M2 9h3M15 9h3M2 10h3M15 10h3M2 11h3M15 11h3M4 12h1M15 12h1M4 13h1M9 13h2M15 13h1M8 14h4M6 15h8M8 16h4M8 17h4" />
  <path stroke="#ffffff" d="M9 5h2M8 6h4M7 7h6M6 8h8M5 9h10M5 10h10M5 11h10M5 12h10M5 13h4M11 13h4M6 14h2M12 14h2" />
</svg>