<svg xmlns="http://www.w3.org/2000/svg" viewBox="0 -0.5 20 20" shape-rendering="crispEdges">
  <path class="float subtle" stroke="currentColor" d="M8 0h4M7 1h6M6 2h2M12 2h2M5 3h3M12 3h3M4 4h2M14 4h2M3 5h3M14 5h3M2 6h2M16 6h2M1 7h3M16 7h3M0 8h2M18 8h2M0 9h2M18 9h2M0 10h2M18 10h2M0 11h2M18 11h2M0 12h2M18 12h2M0 13h2M18 13h2M0 14h2M9 14h2M18 14h2M0 15h2M9 15h2M18 15h2M0 16h3M8 16h4M17 16h3M1 17h3M7 17h6M16 17h3M2 18h7M11 18h7M3 19h5M12 19h5" />
  <path class="float subtle" stroke="#ffffff" d="M8 2h4M8 3h4M6 4h8M6 5h8M4 6h12M4 7h12M2 8h16M2 9h16M2 10h16M2 11h16M2 12h16M2 13h16M2 14h7M11 14h7M2 15h7M11 15h7M3 16h5M12 16h5M4 17h3M13 17h3" />
</svg>